<svg width="126" height="270" viewBox="0 0 126 270" fill="none" xmlns="http://www.w3.org/2000/svg">
    <rect width="12" height="270" fill="#58586A"/>
    <rect width="12" height="270" fill="url(#paint0_linear_2506_1646)"/>
    <rect x="17" y="34" width="4" height="8" transform="rotate(90 17 34)" fill="#58586A"/>
    <rect x="17" y="92" width="4" height="8" transform="rotate(90 17 92)" fill="#58586A"/>
    <rect x="17" y="15" width="109" height="107" fill="#58586A"/>
    <rect x="19" y="105" width="105" height="15" fill="#E21A1A"/>
    <path d="M36.4892 108.92V116H37.5692V109.88H41.4092V116H42.4892V108.92H36.4892ZM46.2954 114.1C46.5754 111.9 46.5654 110.81 46.5954 109.88H49.4854V116H50.5654V108.92H45.5854C45.5554 110.81 45.5454 111.9 45.2654 113.89C45.1154 114.98 44.9454 115.13 43.8754 115.13V116.02C45.8754 116.02 46.0754 115.8 46.2954 114.1ZM54.4216 108.92L51.7416 115.62V116H52.7816L53.5016 114.2H57.4216L58.1416 116H59.1816V115.62L56.5016 108.92H54.4216ZM54.9416 109.88H55.9816C55.9816 110.6 56.2216 111.2 57.0616 113.3H53.8616C54.7016 111.2 54.9416 110.6 54.9416 109.88ZM59.6552 108.92V109.88H62.1452V116H63.2252V109.88H65.7152V108.92H59.6552ZM70.1617 109.33H69.7217C67.5017 109.33 66.3617 109.33 66.3617 112.01C66.3617 114.69 67.5017 114.69 69.7217 114.69H70.1617V116H71.2417V114.69H71.6817C73.9017 114.69 75.0417 114.69 75.0417 112.01C75.0417 109.33 73.9017 109.33 71.6817 109.33H71.2417V108.42H70.1617V109.33ZM72.1017 110.29C73.9017 110.29 73.9017 110.29 73.9017 111.89V112.13C73.9017 113.73 73.9017 113.73 72.1017 113.73H71.2417V110.29H72.1017ZM67.5017 111.89C67.5017 110.29 67.5017 110.29 69.3017 110.29H70.1617V113.73H69.3017C67.5017 113.73 67.5017 113.73 67.5017 112.13V111.89ZM79.5045 108.76C76.3845 108.76 76.3845 110.6 76.3845 112.16V112.76C76.3845 114.32 76.3845 116.16 79.5045 116.16H80.0245C83.1445 116.16 83.1445 114.32 83.1445 112.76V112.16C83.1445 110.6 83.1445 108.76 80.0245 108.76H79.5045ZM77.5845 112.34C77.5845 109.83 77.5845 109.74 79.7645 109.74C81.9345 109.74 81.9445 109.82 81.9445 112.34V112.58C81.9445 115.09 81.9445 115.18 79.7645 115.18C77.5945 115.18 77.5845 115.1 77.5845 112.58V112.34ZM86.0067 109.88H88.1067C89.6467 109.88 89.6667 109.88 89.6667 111.38C89.6667 112.86 89.6667 112.88 88.1067 112.88H86.0067V109.88ZM84.9267 116H86.0067V113.84H87.3867C89.6667 113.84 90.8067 113.84 90.8067 111.38C90.8067 108.92 89.6667 108.92 87.3867 108.92H84.9267V116ZM92.4072 108.92V116H93.4872V109.88H93.8072C93.8072 110.4 93.8072 110.4 95.9072 116H97.2472C99.3472 110.4 99.3472 110.4 99.3472 109.88H99.6672V116H100.747V108.92H98.7772C96.7072 114.44 96.7072 114.44 96.7072 115.04H96.4472C96.4472 114.44 96.4472 114.44 94.3772 108.92H92.4072ZM104.607 108.92L101.927 115.62V116H102.967L103.687 114.2H107.607L108.327 116H109.367V115.62L106.687 108.92H104.607ZM105.127 109.88H106.167C106.167 110.6 106.407 111.2 107.247 113.3H104.047C104.887 111.2 105.127 110.6 105.127 109.88Z" fill="white"/>
    <path d="M57.4309 41.352H55.5589C41.8309 41.352 41.8309 49.048 41.8309 53.416V54.664C41.8309 59.656 41.8309 66.52 54.3109 66.52H55.5589C62.1109 66.52 64.1909 65.012 65.2309 64.232V64.648C65.2309 74.632 65.2309 74.632 54.9349 74.632H52.4389L44.9509 72.76H43.0789V77.856C50.9829 79.832 54.6229 79.832 56.1829 79.832C71.1589 79.832 71.1589 71.512 71.1589 60.904V57.732C71.1589 48.424 71.1589 41.352 57.4309 41.352ZM55.2469 61.528C47.4469 61.528 47.4469 61.528 47.4469 54.04C47.4469 46.552 47.4469 46.552 56.4949 46.552C65.2309 46.552 65.2309 46.552 65.2309 54.04C65.2309 61.528 65.2309 61.528 55.2469 61.528Z" fill="white"/>
    <path d="M91.858 47.64C94.618 47.64 94.618 47.64 94.618 49.92C94.618 52.32 94.618 52.32 91.378 52.32H89.698L86.818 51.6H86.098V53.56C89.138 54.32 90.658 54.32 91.618 54.32C96.898 54.32 96.898 51.24 96.898 50.16V49.68C96.898 46.08 94.258 46.08 92.978 46.08H92.338V45.64L93.458 44.8C96.418 42.58 96.418 42.58 96.418 41.52V39.84H86.098V43.68H87.898V41.76H94.178V42.22L88.498 46.48L89.818 48.24C90.618 47.64 91.378 47.64 91.858 47.64Z" fill="white"/>
    <path d="M93.298 80.12V83H95.338V80.12H97.498V78.32H95.338V73.04H94.738L93.298 73.4V78.32H87.778V77.84L90.898 73.68C92.218 71.92 92.938 70.96 92.938 69.32V68.84H90.658V69.08C90.658 70.84 90.658 70.84 87.658 74.84L85.498 77.72V80.12H93.298Z" fill="white"/>
    <rect x="82" y="60" width="17" height="2" fill="white"/>
    <defs>
        <linearGradient id="paint0_linear_2506_1646" x1="6" y1="0" x2="6" y2="270" gradientUnits="userSpaceOnUse">
            <stop offset="0.651042" stop-color="#E9EAED" stop-opacity="0"/>
            <stop offset="0.861607" stop-color="#E9EAED"/>
        </linearGradient>
    </defs>
</svg>
